# This file uses centimeters as units for non-parametric coordinates.

g default
v 6.403455 90.219258 10.572401
v 7.376178 90.219258 11.572038
v 8.348901 90.219258 12.571675
v 9.321624 90.219258 13.571313
v 10.294347 90.219258 14.570950
v 11.267070 90.219258 15.570587
v 12.239793 90.219258 16.570224
v 13.212516 90.219258 17.569861
v 14.185240 90.219258 18.569498
v 15.157963 90.219258 19.569135
v 16.130685 90.219258 20.568772
v 6.805603 91.496211 10.181081
v 7.778326 91.496211 11.180718
v 8.751049 91.496211 12.180355
v 9.723772 91.496211 13.179992
v 10.696495 91.496211 14.179629
v 11.669218 91.496211 15.179266
v 12.641941 91.496211 16.178904
v 13.614664 91.496211 17.178540
v 14.587387 91.496211 18.178178
v 15.560110 91.496211 19.177815
v 16.532833 91.496211 20.177452
v 7.207750 92.773165 9.789761
v 8.180473 92.773165 10.789398
v 9.153196 92.773165 11.789035
v 10.125920 92.773165 12.788672
v 11.098643 92.773165 13.788309
v 12.071366 92.773165 14.787946
v 13.044089 92.773165 15.787583
v 14.016811 92.773165 16.787220
v 14.989535 92.773165 17.786857
v 15.962258 92.773165 18.786495
v 16.934981 92.773165 19.786131
v 7.609898 94.050119 9.398440
v 8.582621 94.050119 10.398077
v 9.555344 94.050119 11.397714
v 10.528067 94.050119 12.397352
v 11.500790 94.050119 13.396989
v 12.473513 94.050119 14.396626
v 13.446236 94.050119 15.396263
v 14.418959 94.050119 16.395900
v 15.391682 94.050119 17.395537
v 16.364406 94.050119 18.395174
v 17.337128 94.050119 19.394811
v 8.012046 95.327072 9.007120
v 8.984769 95.327072 10.006757
v 9.957492 95.327072 11.006394
v 10.930215 95.327072 12.006032
v 11.902938 95.327072 13.005669
v 12.875661 95.327072 14.005306
v 13.848384 95.327072 15.004943
v 14.821107 95.327072 16.004579
v 15.793830 95.327072 17.004217
v 16.766553 95.327072 18.003854
v 17.739276 95.327072 19.003491
v 8.414193 96.604025 8.615800
v 9.386916 96.604025 9.615437
v 10.359639 96.604025 10.615074
v 11.332363 96.604025 11.614711
v 12.305086 96.604025 12.614348
v 13.277808 96.604025 13.613985
v 14.250532 96.604025 14.613622
v 15.223254 96.604025 15.613259
v 16.195978 96.604025 16.612897
v 17.168701 96.604025 17.612534
v 18.141424 96.604025 18.612171
v 8.816341 97.880979 8.224480
v 9.789064 97.880979 9.224117
v 10.761787 97.880979 10.223754
v 11.734510 97.880979 11.223391
v 12.707233 97.880979 12.223028
v 13.679956 97.880979 13.222665
v 14.652679 97.880979 14.222302
v 15.625402 97.880979 15.221939
v 16.598125 97.880979 16.221576
v 17.570849 97.880979 17.221213
v 18.543571 97.880979 18.220850
v 9.218489 99.157932 7.833159
v 10.191212 99.157932 8.832796
v 11.163934 99.157932 9.832433
v 12.136658 99.157932 10.832071
v 13.109381 99.157932 11.831708
v 14.082104 99.157932 12.831345
v 15.054827 99.157932 13.830982
v 16.027550 99.157932 14.830619
v 17.000273 99.157932 15.830256
v 17.972996 99.157932 16.829893
v 18.945719 99.157932 17.829530
v 9.620636 100.434886 7.441839
v 10.593359 100.434886 8.441476
v 11.566082 100.434886 9.441113
v 12.538805 100.434886 10.440750
v 13.511528 100.434886 11.440387
v 14.484251 100.434886 12.440024
v 15.456975 100.434886 13.439662
v 16.429697 100.434886 14.439298
v 17.402421 100.434886 15.438936
v 18.375144 100.434886 16.438573
v 19.347867 100.434886 17.438210
v 10.022784 101.711839 7.050519
v 10.995507 101.711839 8.050156
v 11.968230 101.711839 9.049793
v 12.940953 101.711839 10.049430
v 13.913676 101.711839 11.049067
v 14.886399 101.711839 12.048704
v 15.859122 101.711839 13.048341
v 16.831845 101.711839 14.047978
v 17.804568 101.711839 15.047615
v 18.777292 101.711839 16.047252
v 19.750014 101.711839 17.046889
v 10.424932 102.988792 6.659198
v 11.397654 102.988792 7.658835
v 12.370377 102.988792 8.658472
v 13.343101 102.988792 9.658110
v 14.315824 102.988792 10.657747
v 15.288547 102.988792 11.657384
v 16.261270 102.988792 12.657021
v 17.233993 102.988792 13.656658
v 18.206716 102.988792 14.656295
v 19.179439 102.988792 15.655932
v 20.152162 102.988792 16.655569
vt 0.000000 0.000000
vt 0.100000 0.000000
vt 0.200000 0.000000
vt 0.300000 0.000000
vt 0.400000 0.000000
vt 0.500000 0.000000
vt 0.600000 0.000000
vt 0.700000 0.000000
vt 0.800000 0.000000
vt 0.900000 0.000000
vt 1.000000 0.000000
vt 0.000000 0.100000
vt 0.100000 0.100000
vt 0.200000 0.100000
vt 0.300000 0.100000
vt 0.400000 0.100000
vt 0.500000 0.100000
vt 0.600000 0.100000
vt 0.700000 0.100000
vt 0.800000 0.100000
vt 0.900000 0.100000
vt 1.000000 0.100000
vt 0.000000 0.200000
vt 0.100000 0.200000
vt 0.200000 0.200000
vt 0.300000 0.200000
vt 0.400000 0.200000
vt 0.500000 0.200000
vt 0.600000 0.200000
vt 0.700000 0.200000
vt 0.800000 0.200000
vt 0.900000 0.200000
vt 1.000000 0.200000
vt 0.000000 0.300000
vt 0.100000 0.300000
vt 0.200000 0.300000
vt 0.300000 0.300000
vt 0.400000 0.300000
vt 0.500000 0.300000
vt 0.600000 0.300000
vt 0.700000 0.300000
vt 0.800000 0.300000
vt 0.900000 0.300000
vt 1.000000 0.300000
vt 0.000000 0.400000
vt 0.100000 0.400000
vt 0.200000 0.400000
vt 0.300000 0.400000
vt 0.400000 0.400000
vt 0.500000 0.400000
vt 0.600000 0.400000
vt 0.700000 0.400000
vt 0.800000 0.400000
vt 0.900000 0.400000
vt 1.000000 0.400000
vt 0.000000 0.500000
vt 0.100000 0.500000
vt 0.200000 0.500000
vt 0.300000 0.500000
vt 0.400000 0.500000
vt 0.500000 0.500000
vt 0.600000 0.500000
vt 0.700000 0.500000
vt 0.800000 0.500000
vt 0.900000 0.500000
vt 1.000000 0.500000
vt 0.000000 0.600000
vt 0.100000 0.600000
vt 0.200000 0.600000
vt 0.300000 0.600000
vt 0.400000 0.600000
vt 0.500000 0.600000
vt 0.600000 0.600000
vt 0.700000 0.600000
vt 0.800000 0.600000
vt 0.900000 0.600000
vt 1.000000 0.600000
vt 0.000000 0.700000
vt 0.100000 0.700000
vt 0.200000 0.700000
vt 0.300000 0.700000
vt 0.400000 0.700000
vt 0.500000 0.700000
vt 0.600000 0.700000
vt 0.700000 0.700000
vt 0.800000 0.700000
vt 0.900000 0.700000
vt 1.000000 0.700000
vt 0.000000 0.800000
vt 0.100000 0.800000
vt 0.200000 0.800000
vt 0.300000 0.800000
vt 0.400000 0.800000
vt 0.500000 0.800000
vt 0.600000 0.800000
vt 0.700000 0.800000
vt 0.800000 0.800000
vt 0.900000 0.800000
vt 1.000000 0.800000
vt 0.000000 0.900000
vt 0.100000 0.900000
vt 0.200000 0.900000
vt 0.300000 0.900000
vt 0.400000 0.900000
vt 0.500000 0.900000
vt 0.600000 0.900000
vt 0.700000 0.900000
vt 0.800000 0.900000
vt 0.900000 0.900000
vt 1.000000 0.900000
vt 0.000000 1.000000
vt 0.100000 1.000000
vt 0.200000 1.000000
vt 0.300000 1.000000
vt 0.400000 1.000000
vt 0.500000 1.000000
vt 0.600000 1.000000
vt 0.700000 1.000000
vt 0.800000 1.000000
vt 0.900000 1.000000
vt 1.000000 1.000000
vn -0.656136 0.402294 0.638471
vn -0.656136 0.402294 0.638471
vn -0.656136 0.402294 0.638471
vn -0.656136 0.402294 0.638471
vn -0.656136 0.402294 0.638471
vn -0.656136 0.402294 0.638471
vn -0.656136 0.402294 0.638471
vn -0.656136 0.402294 0.638471
vn -0.656136 0.402294 0.638471
vn -0.656136 0.402294 0.638471
vn -0.656136 0.402294 0.638471
vn -0.656136 0.402294 0.638471
vn -0.656136 0.402294 0.638471
vn -0.656136 0.402294 0.638471
vn -0.656136 0.402294 0.638471
vn -0.656136 0.402294 0.638471
vn -0.656136 0.402294 0.638471
vn -0.656136 0.402294 0.638471
vn -0.656136 0.402294 0.638471
vn -0.656136 0.402294 0.638471
vn -0.656136 0.402294 0.638471
vn -0.656136 0.402294 0.638471
vn -0.656136 0.402294 0.638471
vn -0.656136 0.402294 0.638471
vn -0.656136 0.402294 0.638471
vn -0.656136 0.402294 0.638471
vn -0.656136 0.402294 0.638471
vn -0.656136 0.402294 0.638471
vn -0.656136 0.402294 0.638471
vn -0.656136 0.402294 0.638471
vn -0.656136 0.402294 0.638471
vn -0.656136 0.402294 0.638471
vn -0.656136 0.402294 0.638471
vn -0.656136 0.402294 0.638471
vn -0.656136 0.402294 0.638471
vn -0.656136 0.402294 0.638471
vn -0.656136 0.402294 0.638471
vn -0.656136 0.402294 0.638471
vn -0.656136 0.402294 0.638471
vn -0.656136 0.402294 0.638471
vn -0.656136 0.402294 0.638471
vn -0.656136 0.402294 0.638471
vn -0.656136 0.402294 0.638471
vn -0.656136 0.402294 0.638471
vn -0.656136 0.402294 0.638471
vn -0.656136 0.402294 0.638471
vn -0.656136 0.402294 0.638471
vn -0.656136 0.402294 0.638471
vn -0.656136 0.402294 0.638471
vn -0.656136 0.402294 0.638471
vn -0.656136 0.402294 0.638471
vn -0.656136 0.402294 0.638471
vn -0.656136 0.402294 0.638471
vn -0.656136 0.402294 0.638471
vn -0.656136 0.402294 0.638471
vn -0.656136 0.402294 0.638471
vn -0.656136 0.402294 0.638471
vn -0.656136 0.402294 0.638471
vn -0.656136 0.402294 0.638471
vn -0.656136 0.402294 0.638471
vn -0.656136 0.402294 0.638471
vn -0.656136 0.402294 0.638471
vn -0.656136 0.402294 0.638471
vn -0.656136 0.402294 0.638471
vn -0.656136 0.402294 0.638471
vn -0.656136 0.402294 0.638471
vn -0.656136 0.402294 0.638471
vn -0.656136 0.402294 0.638471
vn -0.656136 0.402294 0.638471
vn -0.656136 0.402294 0.638471
vn -0.656136 0.402294 0.638471
vn -0.656136 0.402294 0.638471
vn -0.656136 0.402294 0.638471
vn -0.656136 0.402294 0.638471
vn -0.656136 0.402294 0.638471
vn -0.656136 0.402294 0.638471
vn -0.656136 0.402294 0.638471
vn -0.656136 0.402294 0.638471
vn -0.656136 0.402294 0.638471
vn -0.656136 0.402294 0.638471
vn -0.656136 0.402294 0.638471
vn -0.656136 0.402294 0.638471
vn -0.656136 0.402294 0.638471
vn -0.656136 0.402294 0.638471
vn -0.656136 0.402294 0.638471
vn -0.656136 0.402294 0.638471
vn -0.656136 0.402294 0.638471
vn -0.656136 0.402294 0.638471
vn -0.656136 0.402294 0.638471
vn -0.656136 0.402294 0.638471
vn -0.656136 0.402294 0.638471
vn -0.656136 0.402294 0.638471
vn -0.656136 0.402294 0.638471
vn -0.656136 0.402294 0.638471
vn -0.656136 0.402294 0.638471
vn -0.656136 0.402294 0.638471
vn -0.656136 0.402294 0.638471
vn -0.656136 0.402294 0.638471
vn -0.656136 0.402294 0.638471
vn -0.656136 0.402294 0.638471
vn -0.656136 0.402294 0.638471
vn -0.656136 0.402294 0.638471
vn -0.656136 0.402294 0.638471
vn -0.656136 0.402294 0.638471
vn -0.656136 0.402294 0.638471
vn -0.656136 0.402294 0.638471
vn -0.656136 0.402294 0.638471
vn -0.656136 0.402294 0.638471
vn -0.656136 0.402294 0.638471
vn -0.656136 0.402294 0.638471
vn -0.656136 0.402294 0.638471
vn -0.656136 0.402294 0.638471
vn -0.656136 0.402294 0.638471
vn -0.656136 0.402294 0.638471
vn -0.656136 0.402294 0.638471
vn -0.656136 0.402294 0.638471
vn -0.656136 0.402294 0.638471
vn -0.656136 0.402294 0.638471
vn -0.656136 0.402294 0.638471
vn -0.656136 0.402294 0.638471
vn -0.656136 0.402294 0.638471
s 1
g pPlane1
f 1/1/1 2/2/2 12/12/3
f 12/12/3 2/2/2 13/13/4
f 2/2/2 3/3/5 13/13/4
f 13/13/4 3/3/5 14/14/6
f 3/3/5 4/4/7 14/14/6
f 14/14/6 4/4/7 15/15/8
f 4/4/7 5/5/9 15/15/8
f 15/15/8 5/5/9 16/16/10
f 5/5/9 6/6/11 16/16/10
f 16/16/10 6/6/11 17/17/12
f 6/6/11 7/7/13 17/17/12
f 17/17/12 7/7/13 18/18/14
f 7/7/13 8/8/15 18/18/14
f 18/18/14 8/8/15 19/19/16
f 8/8/15 9/9/17 19/19/16
f 19/19/16 9/9/17 20/20/18
f 9/9/17 10/10/19 20/20/18
f 20/20/18 10/10/19 21/21/20
f 10/10/19 11/11/21 21/21/20
f 21/21/20 11/11/21 22/22/22
f 12/12/3 13/13/4 23/23/23
f 23/23/23 13/13/4 24/24/24
f 13/13/4 14/14/6 24/24/24
f 24/24/24 14/14/6 25/25/25
f 14/14/6 15/15/8 25/25/25
f 25/25/25 15/15/8 26/26/26
f 15/15/8 16/16/10 26/26/26
f 26/26/26 16/16/10 27/27/27
f 16/16/10 17/17/12 27/27/27
f 27/27/27 17/17/12 28/28/28
f 17/17/12 18/18/14 28/28/28
f 28/28/28 18/18/14 29/29/29
f 18/18/14 19/19/16 29/29/29
f 29/29/29 19/19/16 30/30/30
f 19/19/16 20/20/18 30/30/30
f 30/30/30 20/20/18 31/31/31
f 20/20/18 21/21/20 31/31/31
f 31/31/31 21/21/20 32/32/32
f 21/21/20 22/22/22 32/32/32
f 32/32/32 22/22/22 33/33/33
f 23/23/23 24/24/24 34/34/34
f 34/34/34 24/24/24 35/35/35
f 24/24/24 25/25/25 35/35/35
f 35/35/35 25/25/25 36/36/36
f 25/25/25 26/26/26 36/36/36
f 36/36/36 26/26/26 37/37/37
f 26/26/26 27/27/27 37/37/37
f 37/37/37 27/27/27 38/38/38
f 27/27/27 28/28/28 38/38/38
f 38/38/38 28/28/28 39/39/39
f 28/28/28 29/29/29 39/39/39
f 39/39/39 29/29/29 40/40/40
f 29/29/29 30/30/30 40/40/40
f 40/40/40 30/30/30 41/41/41
f 30/30/30 31/31/31 41/41/41
f 41/41/41 31/31/31 42/42/42
f 31/31/31 32/32/32 42/42/42
f 42/42/42 32/32/32 43/43/43
f 32/32/32 33/33/33 43/43/43
f 43/43/43 33/33/33 44/44/44
f 34/34/34 35/35/35 45/45/45
f 45/45/45 35/35/35 46/46/46
f 35/35/35 36/36/36 46/46/46
f 46/46/46 36/36/36 47/47/47
f 36/36/36 37/37/37 47/47/47
f 47/47/47 37/37/37 48/48/48
f 37/37/37 38/38/38 48/48/48
f 48/48/48 38/38/38 49/49/49
f 38/38/38 39/39/39 49/49/49
f 49/49/49 39/39/39 50/50/50
f 39/39/39 40/40/40 50/50/50
f 50/50/50 40/40/40 51/51/51
f 40/40/40 41/41/41 51/51/51
f 51/51/51 41/41/41 52/52/52
f 41/41/41 42/42/42 52/52/52
f 52/52/52 42/42/42 53/53/53
f 42/42/42 43/43/43 53/53/53
f 53/53/53 43/43/43 54/54/54
f 43/43/43 44/44/44 54/54/54
f 54/54/54 44/44/44 55/55/55
f 45/45/45 46/46/46 56/56/56
f 56/56/56 46/46/46 57/57/57
f 46/46/46 47/47/47 57/57/57
f 57/57/57 47/47/47 58/58/58
f 47/47/47 48/48/48 58/58/58
f 58/58/58 48/48/48 59/59/59
f 48/48/48 49/49/49 59/59/59
f 59/59/59 49/49/49 60/60/60
f 49/49/49 50/50/50 60/60/60
f 60/60/60 50/50/50 61/61/61
f 50/50/50 51/51/51 61/61/61
f 61/61/61 51/51/51 62/62/62
f 51/51/51 52/52/52 62/62/62
f 62/62/62 52/52/52 63/63/63
f 52/52/52 53/53/53 63/63/63
f 63/63/63 53/53/53 64/64/64
f 53/53/53 54/54/54 64/64/64
f 64/64/64 54/54/54 65/65/65
f 54/54/54 55/55/55 65/65/65
f 65/65/65 55/55/55 66/66/66
f 56/56/56 57/57/57 67/67/67
f 67/67/67 57/57/57 68/68/68
f 57/57/57 58/58/58 68/68/68
f 68/68/68 58/58/58 69/69/69
f 58/58/58 59/59/59 69/69/69
f 69/69/69 59/59/59 70/70/70
f 59/59/59 60/60/60 70/70/70
f 70/70/70 60/60/60 71/71/71
f 60/60/60 61/61/61 71/71/71
f 71/71/71 61/61/61 72/72/72
f 61/61/61 62/62/62 72/72/72
f 72/72/72 62/62/62 73/73/73
f 62/62/62 63/63/63 73/73/73
f 73/73/73 63/63/63 74/74/74
f 63/63/63 64/64/64 74/74/74
f 74/74/74 64/64/64 75/75/75
f 64/64/64 65/65/65 75/75/75
f 75/75/75 65/65/65 76/76/76
f 65/65/65 66/66/66 76/76/76
f 76/76/76 66/66/66 77/77/77
f 67/67/67 68/68/68 78/78/78
f 78/78/78 68/68/68 79/79/79
f 68/68/68 69/69/69 79/79/79
f 79/79/79 69/69/69 80/80/80
f 69/69/69 70/70/70 80/80/80
f 80/80/80 70/70/70 81/81/81
f 70/70/70 71/71/71 81/81/81
f 81/81/81 71/71/71 82/82/82
f 71/71/71 72/72/72 82/82/82
f 82/82/82 72/72/72 83/83/83
f 72/72/72 73/73/73 83/83/83
f 83/83/83 73/73/73 84/84/84
f 73/73/73 74/74/74 84/84/84
f 84/84/84 74/74/74 85/85/85
f 74/74/74 75/75/75 85/85/85
f 85/85/85 75/75/75 86/86/86
f 75/75/75 76/76/76 86/86/86
f 86/86/86 76/76/76 87/87/87
f 76/76/76 77/77/77 87/87/87
f 87/87/87 77/77/77 88/88/88
f 78/78/78 79/79/79 89/89/89
f 89/89/89 79/79/79 90/90/90
f 79/79/79 80/80/80 90/90/90
f 90/90/90 80/80/80 91/91/91
f 80/80/80 81/81/81 91/91/91
f 91/91/91 81/81/81 92/92/92
f 81/81/81 82/82/82 92/92/92
f 92/92/92 82/82/82 93/93/93
f 82/82/82 83/83/83 93/93/93
f 93/93/93 83/83/83 94/94/94
f 83/83/83 84/84/84 94/94/94
f 94/94/94 84/84/84 95/95/95
f 84/84/84 85/85/85 95/95/95
f 95/95/95 85/85/85 96/96/96
f 85/85/85 86/86/86 96/96/96
f 96/96/96 86/86/86 97/97/97
f 86/86/86 87/87/87 97/97/97
f 97/97/97 87/87/87 98/98/98
f 87/87/87 88/88/88 98/98/98
f 98/98/98 88/88/88 99/99/99
f 89/89/89 90/90/90 100/100/100
f 100/100/100 90/90/90 101/101/101
f 90/90/90 91/91/91 101/101/101
f 101/101/101 91/91/91 102/102/102
f 91/91/91 92/92/92 102/102/102
f 102/102/102 92/92/92 103/103/103
f 92/92/92 93/93/93 103/103/103
f 103/103/103 93/93/93 104/104/104
f 93/93/93 94/94/94 104/104/104
f 104/104/104 94/94/94 105/105/105
f 94/94/94 95/95/95 105/105/105
f 105/105/105 95/95/95 106/106/106
f 95/95/95 96/96/96 106/106/106
f 106/106/106 96/96/96 107/107/107
f 96/96/96 97/97/97 107/107/107
f 107/107/107 97/97/97 108/108/108
f 97/97/97 98/98/98 108/108/108
f 108/108/108 98/98/98 109/109/109
f 98/98/98 99/99/99 109/109/109
f 109/109/109 99/99/99 110/110/110
f 100/100/100 101/101/101 111/111/111
f 111/111/111 101/101/101 112/112/112
f 101/101/101 102/102/102 112/112/112
f 112/112/112 102/102/102 113/113/113
f 102/102/102 103/103/103 113/113/113
f 113/113/113 103/103/103 114/114/114
f 103/103/103 104/104/104 114/114/114
f 114/114/114 104/104/104 115/115/115
f 104/104/104 105/105/105 115/115/115
f 115/115/115 105/105/105 116/116/116
f 105/105/105 106/106/106 116/116/116
f 116/116/116 106/106/106 117/117/117
f 106/106/106 107/107/107 117/117/117
f 117/117/117 107/107/107 118/118/118
f 107/107/107 108/108/108 118/118/118
f 118/118/118 108/108/108 119/119/119
f 108/108/108 109/109/109 119/119/119
f 119/119/119 109/109/109 120/120/120
f 109/109/109 110/110/110 120/120/120
f 120/120/120 110/110/110 121/121/121
