# This file uses centimeters as units for non-parametric coordinates.

g default
v 12.728536 75.439652 14.512928
v 12.196262 75.439652 13.468284
v 11.367227 75.439652 12.639249
v 10.322582 75.439652 12.106976
v 9.164585 75.439652 11.923567
v 8.006587 75.439652 12.106976
v 6.961943 75.439652 12.639250
v 6.132909 75.439652 13.468284
v 5.600636 75.439652 14.512929
v 5.417227 75.439652 15.670926
v 5.600636 75.439652 16.828923
v 6.132909 75.439652 17.873567
v 6.961943 75.439652 18.702602
v 8.006587 75.439652 19.234876
v 9.164585 75.439652 19.418283
v 10.322582 75.439652 19.234875
v 11.367226 75.439652 18.702602
v 12.196260 75.439652 17.873567
v 12.728533 75.439652 16.828923
v 12.911942 75.439652 15.670926
v 12.970800 81.216158 14.434212
v 12.402345 81.216158 13.318556
v 11.516955 81.216158 12.433166
v 10.401299 81.216158 11.864712
v 9.164585 81.216158 11.668835
v 7.927871 81.216158 11.864712
v 6.812215 81.216158 12.433167
v 5.926826 81.216158 13.318557
v 5.358371 81.216158 14.434212
v 5.162495 81.216158 15.670926
v 5.358371 81.216158 16.907640
v 5.926826 81.216158 18.023296
v 6.812215 81.216158 18.908685
v 7.927871 81.216158 19.477139
v 9.164585 81.216158 19.673016
v 10.401298 81.216158 19.477139
v 11.516954 81.216158 18.908684
v 12.402343 81.216158 18.023295
v 12.970797 81.216158 16.907639
v 13.166674 81.216158 15.670926
v 9.164585 75.439652 15.670926
v 9.164585 81.117504 15.670926
v 12.879205 77.587928 14.463973
v 12.324429 77.587928 13.375165
v 11.460346 77.587928 12.511082
v 10.371538 77.587928 11.956307
v 9.164585 77.587928 11.765144
v 7.957632 77.587928 11.956307
v 6.868824 77.587928 12.511082
v 6.004742 77.587928 13.375166
v 5.449966 77.587928 14.463973
v 5.258804 77.587928 15.670926
v 5.449966 77.587928 16.877879
v 6.004742 77.587928 17.966686
v 6.868825 77.587928 18.830769
v 7.957632 77.587928 19.385544
v 9.164585 77.587928 19.576707
v 10.371537 77.587928 19.385544
v 11.460345 77.587928 18.830769
v 12.324427 77.587928 17.966686
v 12.879203 77.587928 16.877878
v 13.070365 77.587928 15.670926
v 12.928430 79.715063 14.447979
v 13.122123 79.715063 15.670926
v 12.928427 79.715063 16.893873
v 12.366301 79.715063 17.997109
v 11.490768 79.715063 18.872642
v 10.387531 79.715063 19.434769
v 9.164585 79.715063 19.628465
v 7.941638 79.715063 19.434769
v 6.838402 79.715063 18.872643
v 5.962868 79.715063 17.997109
v 5.400741 79.715063 16.893873
v 5.207046 79.715063 15.670926
v 5.400741 79.715063 14.447979
v 5.962868 79.715063 13.344743
v 6.838401 79.715063 12.469209
v 7.941638 79.715063 11.907082
v 9.164585 79.715063 11.713386
v 10.387532 79.715063 11.907081
v 11.490769 79.715063 12.469208
v 12.366303 79.715063 13.344742
vt 0.648603 0.107966
vt 0.626409 0.064408
vt 0.591842 0.029841
vt 0.548284 0.007647
vt 0.500000 -0.000000
vt 0.451716 0.007647
vt 0.408159 0.029841
vt 0.373591 0.064409
vt 0.351397 0.107966
vt 0.343750 0.156250
vt 0.351397 0.204534
vt 0.373591 0.248091
vt 0.408159 0.282659
vt 0.451716 0.304853
vt 0.500000 0.312500
vt 0.548284 0.304853
vt 0.591841 0.282659
vt 0.626409 0.248091
vt 0.648603 0.204534
vt 0.656250 0.156250
vt 0.375000 0.312500
vt 0.387500 0.312500
vt 0.400000 0.312500
vt 0.412500 0.312500
vt 0.425000 0.312500
vt 0.437500 0.312500
vt 0.450000 0.312500
vt 0.462500 0.312500
vt 0.475000 0.312500
vt 0.487500 0.312500
vt 0.500000 0.312500
vt 0.512500 0.312500
vt 0.525000 0.312500
vt 0.537500 0.312500
vt 0.550000 0.312500
vt 0.562500 0.312500
vt 0.575000 0.312500
vt 0.587500 0.312500
vt 0.600000 0.312500
vt 0.612500 0.312500
vt 0.625000 0.312500
vt 0.375000 0.688440
vt 0.387500 0.688440
vt 0.400000 0.688440
vt 0.412500 0.688440
vt 0.425000 0.688440
vt 0.437500 0.688440
vt 0.450000 0.688440
vt 0.462500 0.688440
vt 0.475000 0.688440
vt 0.487500 0.688440
vt 0.500000 0.688440
vt 0.512500 0.688440
vt 0.525000 0.688440
vt 0.537500 0.688440
vt 0.550000 0.688440
vt 0.562500 0.688440
vt 0.575000 0.688440
vt 0.587500 0.688440
vt 0.600000 0.688440
vt 0.612500 0.688440
vt 0.625000 0.688440
vt 0.648603 0.795466
vt 0.626409 0.751908
vt 0.591842 0.717341
vt 0.548284 0.695147
vt 0.500000 0.687500
vt 0.451716 0.695147
vt 0.408159 0.717341
vt 0.373591 0.751909
vt 0.351397 0.795466
vt 0.343750 0.843750
vt 0.351397 0.892034
vt 0.373591 0.935591
vt 0.408159 0.970159
vt 0.451716 0.992353
vt 0.500000 1.000000
vt 0.548284 0.992353
vt 0.591841 0.970159
vt 0.626409 0.935591
vt 0.648603 0.892034
vt 0.656250 0.843750
vt 0.500000 0.150000
vt 0.500000 0.837500
vt 0.625000 0.500470
vt 0.375000 0.500470
vt 0.387500 0.500470
vt 0.400000 0.500470
vt 0.412500 0.500470
vt 0.425000 0.500470
vt 0.437500 0.500470
vt 0.450000 0.500470
vt 0.462500 0.500470
vt 0.475000 0.500470
vt 0.487500 0.500470
vt 0.500000 0.500470
vt 0.512500 0.500470
vt 0.525000 0.500470
vt 0.537500 0.500470
vt 0.550000 0.500470
vt 0.562500 0.500470
vt 0.575000 0.500470
vt 0.587500 0.500470
vt 0.600000 0.500470
vt 0.612500 0.500470
vt 0.625000 0.594455
vt 0.375000 0.594455
vt 0.612500 0.594455
vt 0.600000 0.594455
vt 0.587500 0.594455
vt 0.575000 0.594455
vt 0.562500 0.594455
vt 0.550000 0.594455
vt 0.537500 0.594455
vt 0.525000 0.594455
vt 0.512500 0.594455
vt 0.500000 0.594455
vt 0.487500 0.594455
vt 0.475000 0.594455
vt 0.462500 0.594455
vt 0.450000 0.594455
vt 0.437500 0.594455
vt 0.425000 0.594455
vt 0.412500 0.594455
vt 0.400000 0.594455
vt 0.387500 0.594455
vn 0.949930 -0.048657 -0.308650
vn 0.808059 -0.048657 -0.587089
vn 0.808732 -0.026557 -0.587578
vn 0.950721 -0.026557 -0.308907
vn 0.587089 -0.048657 -0.808059
vn 0.587578 -0.026557 -0.808732
vn 0.308651 -0.048657 -0.949930
vn 0.308908 -0.026557 -0.950721
vn -0.000000 -0.048657 -0.998816
vn -0.000000 -0.026557 -0.999647
vn -0.308651 -0.048657 -0.949930
vn -0.308908 -0.026557 -0.950721
vn -0.587089 -0.048657 -0.808059
vn -0.587578 -0.026557 -0.808731
vn -0.808059 -0.048657 -0.587089
vn -0.808732 -0.026557 -0.587578
vn -0.949930 -0.048657 -0.308651
vn -0.950721 -0.026557 -0.308908
vn -0.998816 -0.048657 0.000000
vn -0.999647 -0.026557 0.000000
vn -0.949930 -0.048657 0.308651
vn -0.950721 -0.026557 0.308908
vn -0.808059 -0.048657 0.587089
vn -0.808732 -0.026557 0.587578
vn -0.587089 -0.048657 0.808059
vn -0.587578 -0.026557 0.808732
vn -0.308651 -0.048657 0.949930
vn -0.308908 -0.026557 0.950721
vn 0.000000 -0.048657 0.998816
vn 0.000000 -0.026557 0.999647
vn 0.308651 -0.048657 0.949930
vn 0.308908 -0.026557 0.950721
vn 0.587089 -0.048657 0.808059
vn 0.587578 -0.026557 0.808732
vn 0.808059 -0.048657 0.587089
vn 0.808732 -0.026557 0.587578
vn 0.949930 -0.048657 0.308651
vn 0.950721 -0.026557 0.308908
vn 0.998816 -0.048657 0.000001
vn 0.999647 -0.026557 0.000001
vn 0.000000 -1.000000 0.000000
vn 0.000000 -1.000000 0.000000
vn 0.000000 -1.000000 -0.000000
vn 0.000000 -1.000000 0.000000
vn 0.000000 -1.000000 -0.000000
vn 0.000000 -1.000000 -0.000000
vn 0.000000 -1.000000 0.000000
vn 0.000000 -1.000000 0.000000
vn 0.000000 -1.000000 0.000000
vn 0.000000 -1.000000 0.000000
vn 0.000000 -1.000000 0.000000
vn 0.000000 -1.000000 0.000000
vn 0.000000 -1.000000 0.000000
vn 0.000000 -1.000000 0.000000
vn 0.000000 -1.000000 -0.000000
vn 0.000000 -1.000000 -0.000000
vn 0.000000 -1.000000 0.000000
vn 0.000000 -1.000000 0.000000
vn 0.000000 -1.000000 0.000000
vn 0.000000 -1.000000 0.000000
vn 0.000000 -1.000000 0.000000
vn -0.023437 0.999696 0.007615
vn -0.019937 0.999696 0.014485
vn 0.000000 1.000000 0.000000
vn -0.014485 0.999696 0.019937
vn -0.007615 0.999696 0.023437
vn -0.000000 0.999696 0.024643
vn 0.007615 0.999696 0.023437
vn 0.014485 0.999696 0.019937
vn 0.019937 0.999696 0.014485
vn 0.023437 0.999696 0.007615
vn 0.024643 0.999696 0.000000
vn 0.023437 0.999696 -0.007615
vn 0.019937 0.999696 -0.014485
vn 0.014485 0.999696 -0.019937
vn 0.007615 0.999696 -0.023437
vn -0.000000 0.999696 -0.024643
vn -0.007615 0.999696 -0.023437
vn -0.014485 0.999696 -0.019937
vn -0.019937 0.999696 -0.014485
vn -0.023437 0.999696 -0.007615
vn -0.024643 0.999696 0.000000
vn 0.948481 -0.073545 -0.308179
vn 0.806826 -0.073545 -0.586194
vn 0.586193 -0.073545 -0.806826
vn 0.308180 -0.073545 -0.948481
vn -0.000000 -0.073545 -0.997292
vn -0.308180 -0.073545 -0.948481
vn -0.586194 -0.073545 -0.806826
vn -0.806826 -0.073545 -0.586193
vn -0.948481 -0.073545 -0.308180
vn -0.997292 -0.073545 0.000000
vn -0.948481 -0.073545 0.308180
vn -0.806826 -0.073545 0.586194
vn -0.586194 -0.073545 0.806826
vn -0.308180 -0.073544 0.948481
vn 0.000000 -0.073544 0.997292
vn 0.308180 -0.073545 0.948481
vn 0.586194 -0.073545 0.806826
vn 0.806826 -0.073545 0.586193
vn 0.948481 -0.073545 0.308180
vn 0.997292 -0.073545 0.000001
vn 0.950638 -0.029666 -0.308880
vn 0.999560 -0.029666 0.000001
vn 0.950638 -0.029666 0.308881
vn 0.808661 -0.029666 0.587527
vn 0.587526 -0.029666 0.808661
vn 0.308881 -0.029666 0.950638
vn 0.000000 -0.029666 0.999560
vn -0.308881 -0.029666 0.950638
vn -0.587526 -0.029666 0.808661
vn -0.808661 -0.029666 0.587527
vn -0.950638 -0.029666 0.308881
vn -0.999560 -0.029666 0.000000
vn -0.950638 -0.029665 -0.308881
vn -0.808661 -0.029665 -0.587526
vn -0.587527 -0.029666 -0.808661
vn -0.308881 -0.029666 -0.950638
vn -0.000000 -0.029666 -0.999560
vn 0.308881 -0.029665 -0.950638
vn 0.587526 -0.029666 -0.808661
vn 0.808661 -0.029666 -0.587527
s 1
g pCylinder1
f 43/86/1 44/87/2 82/126/3 63/107/4
f 44/87/2 45/88/5 81/125/6 82/126/3
f 45/88/5 46/89/7 80/124/8 81/125/6
f 46/89/7 47/90/9 79/123/10 80/124/8
f 47/90/9 48/91/11 78/122/12 79/123/10
f 48/91/11 49/92/13 77/121/14 78/122/12
f 49/92/13 50/93/15 76/120/16 77/121/14
f 50/93/15 51/94/17 75/119/18 76/120/16
f 51/94/17 52/95/19 74/118/20 75/119/18
f 52/95/19 53/96/21 73/117/22 74/118/20
f 53/96/21 54/97/23 72/116/24 73/117/22
f 54/97/23 55/98/25 71/115/26 72/116/24
f 55/98/25 56/99/27 70/114/28 71/115/26
f 56/99/27 57/100/29 69/113/30 70/114/28
f 57/100/29 58/101/31 68/112/32 69/113/30
f 58/101/31 59/102/33 67/111/34 68/112/32
f 59/102/33 60/103/35 66/110/36 67/111/34
f 60/103/35 61/104/37 65/109/38 66/110/36
f 61/104/37 62/105/39 64/108/40 65/109/38
f 62/105/39 43/85/1 63/106/4 64/108/40
s 2
f 2/2/41 1/1/42 41/83/43
f 3/3/44 2/2/41 41/83/43
f 4/4/45 3/3/44 41/83/43
f 5/5/46 4/4/45 41/83/43
f 6/6/47 5/5/46 41/83/43
f 7/7/48 6/6/47 41/83/43
f 8/8/49 7/7/48 41/83/43
f 9/9/50 8/8/49 41/83/43
f 10/10/51 9/9/50 41/83/43
f 11/11/52 10/10/51 41/83/43
f 12/12/53 11/11/52 41/83/43
f 13/13/54 12/12/53 41/83/43
f 14/14/55 13/13/54 41/83/43
f 15/15/56 14/14/55 41/83/43
f 16/16/57 15/15/56 41/83/43
f 17/17/58 16/16/57 41/83/43
f 18/18/59 17/17/58 41/83/43
f 19/19/60 18/18/59 41/83/43
f 20/20/61 19/19/60 41/83/43
f 1/1/42 20/20/61 41/83/43
s 3
f 21/81/62 22/80/63 42/84/64
f 22/80/63 23/79/65 42/84/64
f 23/79/65 24/78/66 42/84/64
f 24/78/66 25/77/67 42/84/64
f 25/77/67 26/76/68 42/84/64
f 26/76/68 27/75/69 42/84/64
f 27/75/69 28/74/70 42/84/64
f 28/74/70 29/73/71 42/84/64
f 29/73/71 30/72/72 42/84/64
f 30/72/72 31/71/73 42/84/64
f 31/71/73 32/70/74 42/84/64
f 32/70/74 33/69/75 42/84/64
f 33/69/75 34/68/76 42/84/64
f 34/68/76 35/67/77 42/84/64
f 35/67/77 36/66/78 42/84/64
f 36/66/78 37/65/79 42/84/64
f 37/65/79 38/64/80 42/84/64
f 38/64/80 39/63/81 42/84/64
f 39/63/81 40/82/82 42/84/64
f 40/82/82 21/81/62 42/84/64
s 1
f 1/21/83 2/22/84 44/87/2 43/86/1
f 2/22/84 3/23/85 45/88/5 44/87/2
f 3/23/85 4/24/86 46/89/7 45/88/5
f 4/24/86 5/25/87 47/90/9 46/89/7
f 5/25/87 6/26/88 48/91/11 47/90/9
f 6/26/88 7/27/89 49/92/13 48/91/11
f 7/27/89 8/28/90 50/93/15 49/92/13
f 8/28/90 9/29/91 51/94/17 50/93/15
f 9/29/91 10/30/92 52/95/19 51/94/17
f 10/30/92 11/31/93 53/96/21 52/95/19
f 11/31/93 12/32/94 54/97/23 53/96/21
f 12/32/94 13/33/95 55/98/25 54/97/23
f 13/33/95 14/34/96 56/99/27 55/98/25
f 14/34/96 15/35/97 57/100/29 56/99/27
f 15/35/97 16/36/98 58/101/31 57/100/29
f 16/36/98 17/37/99 59/102/33 58/101/31
f 17/37/99 18/38/100 60/103/35 59/102/33
f 18/38/100 19/39/101 61/104/37 60/103/35
f 19/39/101 20/40/102 62/105/39 61/104/37
f 20/40/102 1/41/83 43/85/1 62/105/39
f 64/108/40 63/106/4 21/62/103 40/61/104
f 65/109/38 64/108/40 40/61/104 39/60/105
f 66/110/36 65/109/38 39/60/105 38/59/106
f 67/111/34 66/110/36 38/59/106 37/58/107
f 68/112/32 67/111/34 37/58/107 36/57/108
f 69/113/30 68/112/32 36/57/108 35/56/109
f 70/114/28 69/113/30 35/56/109 34/55/110
f 71/115/26 70/114/28 34/55/110 33/54/111
f 72/116/24 71/115/26 33/54/111 32/53/112
f 73/117/22 72/116/24 32/53/112 31/52/113
f 74/118/20 73/117/22 31/52/113 30/51/114
f 75/119/18 74/118/20 30/51/114 29/50/115
f 76/120/16 75/119/18 29/50/115 28/49/116
f 77/121/14 76/120/16 28/49/116 27/48/117
f 78/122/12 77/121/14 27/48/117 26/47/118
f 79/123/10 78/122/12 26/47/118 25/46/119
f 80/124/8 79/123/10 25/46/119 24/45/120
f 81/125/6 80/124/8 24/45/120 23/44/121
f 82/126/3 81/125/6 23/44/121 22/43/122
f 63/107/4 82/126/3 22/43/122 21/42/103
