# This file uses centimeters as units for non-parametric coordinates.

g default
v 26.103826 5.404091 22.713634
v 26.103826 5.404091 7.544889
v -25.903303 5.404091 22.713634
v -25.903303 5.404091 7.544889
v 26.103826 113.752290 22.713634
v 26.103826 113.752290 7.544889
v -25.903303 113.752290 22.713634
v -25.903303 113.752290 7.544889
v -22.869554 5.404091 22.713634
v 23.070077 5.404091 22.713634
v 23.070077 106.814276 22.713634
v -22.869554 5.404091 8.002012
v 23.070077 5.404091 8.002012
v 23.070077 106.814276 21.904495
v -22.869554 106.814276 21.904495
v -22.869554 112.452112 8.002012
v 23.070077 112.452112 8.002012
v 23.070077 112.452112 21.904495
v -22.869554 112.452112 21.904495
v 27.351874 3.976588 23.670067
v 27.351874 3.976588 6.679903
v -27.151350 3.976588 23.670067
v -27.151350 3.976588 6.679903
v 27.351874 0.738023 23.670067
v 27.351874 0.738023 6.679903
v -27.151350 0.738023 23.670067
v -27.151350 0.738023 6.679903
v 27.351897 115.233322 23.684748
v 27.351897 115.233322 6.679905
v -27.132110 115.233322 23.684748
v -27.132110 115.233322 6.679905
v 10.810464 109.622084 22.713634
v -10.609942 109.622084 22.713634
v 10.810464 109.622084 21.904495
v -10.609942 109.622084 21.904495
v -22.869554 113.752290 22.713634
v -22.869554 106.814276 22.713638
v 23.070077 113.752290 22.713634
v 23.070077 106.814283 22.713635
v 23.070079 92.005029 8.002012
v 23.070076 92.005029 22.241597
v 23.070079 92.816886 8.002012
v 23.070076 92.816886 22.241597
v -22.869554 92.005029 8.002007
v -22.869554 92.005029 22.241592
v -22.869554 92.816886 8.002007
v -22.869554 92.816886 22.241592
v 23.070079 74.125594 8.002012
v 23.070076 74.125594 22.241597
v 23.070079 74.937452 8.002012
v 23.070076 74.937452 22.241597
v -22.869554 74.125594 8.002007
v -22.869554 74.125594 22.241592
v -22.869554 74.937452 8.002007
v -22.869554 74.937452 22.241592
v 23.070079 56.246166 8.002012
v 23.070076 56.246166 22.241597
v 23.070079 57.058024 8.002012
v 23.070076 57.058024 22.241597
v -22.869554 56.246166 8.002007
v -22.869554 56.246166 22.241592
v -22.869554 57.058024 8.002007
v -22.869554 57.058024 22.241592
v 23.070079 38.366735 8.002012
v 23.070076 38.366735 22.241597
v 23.070079 39.178592 8.002012
v 23.070076 39.178592 22.241597
v -22.869554 38.366735 8.002007
v -22.869554 38.366735 22.241592
v -22.869554 39.178589 8.002007
v -22.869554 39.178589 22.241592
v 23.070079 20.487305 8.002012
v 23.070076 20.487305 22.241597
v 23.070079 21.299159 8.002012
v 23.070076 21.299159 22.241597
v -22.869554 20.487303 8.002007
v -22.869554 20.487303 22.241592
v -22.869554 21.299158 8.002007
v -22.869554 21.299158 22.241592
vt 0.993815 0.033107
vt 0.277201 0.033107
vt 0.154941 0.569371
vt 0.408225 0.859666
vt 0.592079 0.033107
vt 0.154941 0.809571
vt 0.678227 0.033107
vt 0.735346 0.859666
vt 0.973364 0.040093
vt 0.703133 0.040092
vt 0.948909 0.859666
vt 0.386677 0.823949
vt 0.387217 0.825148
vt 0.973361 0.112193
vt 0.703131 0.112192
vt 0.314838 0.838135
vt 0.189873 0.838127
vt 0.190253 0.832970
vt 0.314485 0.832974
vt 0.120555 0.951094
vt 0.120571 0.870232
vt 0.388111 0.870265
vt 0.388095 0.951111
vt 0.189441 0.481562
vt 0.120548 0.983826
vt 0.118147 0.823331
vt 0.678227 0.024299
vt 0.993815 0.024299
vt 0.592079 0.024299
vt 0.277201 0.024299
vt 0.678227 0.014581
vt 0.993815 0.014581
vt 0.592078 0.014581
vt 0.277201 0.014581
vt 0.451035 0.882771
vt 0.408225 0.882771
vt 0.669700 0.882771
vt 0.735346 0.882771
vt 0.750856 0.859666
vt 0.725355 0.261440
vt 0.725355 0.191994
vt 0.949400 0.191994
vt 0.949400 0.261440
vt 0.725355 0.188035
vt 0.949400 0.188035
vt 0.725355 0.118589
vt 0.949400 0.118589
vt 0.725120 0.407248
vt 0.725120 0.337802
vt 0.949165 0.337802
vt 0.949165 0.407248
vt 0.725120 0.333842
vt 0.949165 0.333842
vt 0.725120 0.264397
vt 0.949165 0.264397
vt 0.725135 0.851028
vt 0.725135 0.781582
vt 0.949181 0.781582
vt 0.949181 0.851028
vt 0.725135 0.777623
vt 0.949181 0.777623
vt 0.725135 0.708177
vt 0.949181 0.708177
vt 0.724396 0.701882
vt 0.724396 0.632437
vt 0.948441 0.632437
vt 0.948441 0.701882
vt 0.724396 0.628477
vt 0.948441 0.628477
vt 0.724396 0.559032
vt 0.948441 0.559032
vt 0.724440 0.555840
vt 0.724440 0.486395
vt 0.948485 0.486394
vt 0.948485 0.555840
vt 0.724440 0.482435
vt 0.948485 0.482435
vt 0.724439 0.412989
vt 0.948485 0.412989
vt 0.693628 0.499312
vt 0.693627 0.569372
vt 0.451035 0.859666
vt 0.154943 0.499312
vt 0.693627 0.809571
vt 0.669700 0.859666
vt 0.693632 0.123219
vt 0.154946 0.123219
vt 0.693631 0.485300
vt 0.693633 0.137231
vt 0.154944 0.485300
vt 0.189438 0.485300
vt 0.189440 0.485300
vt 0.693633 0.417354
vt 0.693634 0.205178
vt 0.161411 0.140968
vt 0.161412 0.202625
vt 0.161412 0.419905
vt 0.388089 0.983826
vt 0.189442 0.140968
vt 0.189442 0.137231
vt 0.154946 0.137231
vt 0.693631 0.053161
vt 0.154946 0.053162
vt 0.386137 0.863154
vt 0.118597 0.863154
vt 0.948909 0.859666
vt 0.948909 0.882771
vt 0.191945 0.967474
vt 0.316692 0.967474
vt 0.118579 0.819283
vt 0.386413 0.820505
vt 0.179467 0.033107
vt 0.179467 0.024299
vt 0.179467 0.014581
vt 0.161410 0.481562
vt 0.948909 0.954935
vt 0.735346 0.955164
vn 1.000000 0.000000 0.000000
vn 1.000000 0.000000 0.000000
vn 1.000000 0.000000 0.000000
vn 1.000000 0.000000 0.000000
vn 1.000000 0.000000 0.000000
vn 1.000000 0.000000 0.000000
vn 0.000000 0.000000 -1.000000
vn 0.000000 0.000000 -1.000000
vn 0.000000 0.000000 -1.000000
vn 0.000000 0.000000 -1.000000
vn 0.000000 0.000000 -1.000000
vn 0.000000 0.000000 -1.000000
vn -1.000000 0.000000 0.000000
vn -1.000000 0.000000 0.000000
vn -1.000000 0.000000 0.000000
vn -1.000000 0.000000 0.000000
vn -1.000000 0.000000 0.000000
vn -1.000000 0.000000 0.000000
vn 0.000000 0.000000 -1.000000
vn 0.000000 0.000000 -1.000000
vn 0.000000 0.000000 -1.000000
vn 0.000000 0.000000 -1.000000
vn 0.000000 0.000000 -1.000000
vn 0.000000 0.000000 -1.000000
vn 0.000000 0.000000 1.000000
vn 0.000000 0.000000 1.000000
vn 0.000000 0.000000 1.000000
vn 0.485048 -0.212094 0.848378
vn 0.485048 -0.212094 0.848377
vn 0.485048 -0.212094 0.848377
vn 0.000000 0.000000 1.000000
vn 0.000000 0.000000 1.000000
vn 0.000000 0.000000 1.000000
vn 0.000000 0.000000 1.000000
vn 0.000000 0.000000 1.000000
vn 0.000000 0.000000 1.000000
vn 0.000000 1.000000 0.000000
vn 0.000000 1.000000 0.000000
vn 0.000000 1.000000 0.000000
vn 0.000000 1.000000 0.000000
vn 0.000000 1.000000 0.000000
vn 0.000000 1.000000 0.000000
vn 0.000000 -1.000000 -0.000000
vn 0.000000 -1.000000 -0.000000
vn 0.000000 -1.000000 -0.000000
vn 0.000000 -1.000000 -0.000000
vn 0.000000 -1.000000 -0.000000
vn 0.000000 -1.000000 -0.000000
vn 0.000000 -1.000000 -0.000000
vn 0.000000 -1.000000 -0.000000
vn 0.000000 -1.000000 -0.000000
vn 0.000000 -1.000000 -0.000000
vn 0.000000 -1.000000 -0.000000
vn 0.000000 -1.000000 -0.000000
vn 0.000000 0.000000 1.000000
vn 0.000000 0.000000 1.000000
vn 0.000000 0.000000 1.000000
vn 0.000000 0.000000 1.000000
vn 0.000000 0.000000 1.000000
vn 0.000000 0.000000 1.000000
vn -1.000000 0.000000 0.000000
vn -1.000000 0.000000 0.000000
vn -1.000000 0.000000 0.000000
vn -1.000000 0.000000 0.000000
vn -1.000000 0.000000 0.000000
vn -1.000000 0.000000 0.000000
vn -1.000000 0.000000 0.000000
vn -1.000000 0.000000 0.000000
vn -1.000000 0.000000 0.000000
vn 0.000000 0.000000 -1.000000
vn 0.000000 0.000000 -1.000000
vn 0.000000 0.000000 -1.000000
vn 1.000000 0.000000 0.000000
vn 1.000000 0.000000 0.000000
vn 1.000000 0.000000 0.000000
vn -1.000000 0.000000 0.000000
vn -1.000000 0.000000 0.000000
vn -1.000000 0.000000 0.000000
vn 1.000000 0.000000 0.000000
vn 1.000000 0.000000 0.000000
vn 1.000000 0.000000 0.000000
vn 1.000000 0.000000 0.000000
vn 1.000000 0.000000 0.000000
vn 1.000000 0.000000 0.000000
vn 1.000000 0.000000 0.000000
vn 1.000000 0.000000 0.000000
vn 1.000000 0.000000 0.000000
vn 0.000000 0.556619 0.830768
vn 0.000000 0.556619 0.830768
vn 0.000000 0.556619 0.830768
vn 0.000000 0.556619 0.830768
vn 0.000000 0.556619 0.830768
vn 0.000000 0.556619 0.830768
vn -0.752843 0.658201 0.000000
vn -0.752842 0.658201 0.000000
vn -0.752843 0.658201 0.000000
vn -0.752842 0.658201 0.000000
vn -0.752842 0.658201 0.000000
vn -0.752842 0.658201 0.000000
vn 0.000000 0.518228 -0.855242
vn 0.000000 0.518228 -0.855242
vn 0.000000 0.518228 -0.855242
vn 0.000000 0.518228 -0.855242
vn 0.000000 0.518228 -0.855242
vn 0.000000 0.518228 -0.855242
vn 0.752842 0.658201 0.000000
vn 0.752843 0.658201 0.000000
vn 0.752843 0.658201 0.000000
vn 0.752842 0.658201 0.000000
vn 0.752842 0.658201 0.000000
vn 0.752843 0.658201 0.000000
vn 0.000000 0.000000 1.000000
vn 0.000000 0.000000 1.000000
vn 0.000000 0.000000 1.000000
vn 0.000000 0.000000 1.000000
vn 0.000000 0.000000 1.000000
vn 0.000000 0.000000 1.000000
vn -1.000000 0.000000 0.000000
vn -1.000000 0.000000 0.000000
vn -1.000000 0.000000 0.000000
vn -1.000000 0.000000 0.000000
vn -1.000000 0.000000 0.000000
vn -1.000000 0.000000 0.000000
vn 0.000000 0.000000 -1.000000
vn 0.000000 0.000000 -1.000000
vn 0.000000 0.000000 -1.000000
vn 0.000000 0.000000 -1.000000
vn 0.000000 0.000000 -1.000000
vn 0.000000 0.000000 -1.000000
vn 1.000000 0.000000 0.000000
vn 1.000000 0.000000 0.000000
vn 1.000000 0.000000 0.000000
vn 1.000000 0.000000 0.000000
vn 1.000000 0.000000 0.000000
vn 1.000000 0.000000 0.000000
vn 0.764686 -0.644403 0.000000
vn 0.764686 -0.644403 0.000000
vn 0.764686 -0.644403 0.000000
vn 0.764686 -0.644403 0.000000
vn 0.764686 -0.644403 0.000000
vn 0.764686 -0.644403 0.000000
vn 0.000000 -0.504327 -0.863513
vn 0.000000 -0.504327 -0.863513
vn 0.000000 -0.504327 -0.863513
vn 0.000000 -0.504327 -0.863513
vn 0.000000 -0.504327 -0.863513
vn 0.000000 -0.504327 -0.863513
vn -0.769596 -0.638531 -0.000000
vn -0.769596 -0.638531 -0.000000
vn -0.769596 -0.638531 -0.000000
vn -0.769596 -0.638531 -0.000000
vn -0.769596 -0.638531 -0.000000
vn -0.769596 -0.638531 -0.000000
vn -0.000000 -0.548336 0.836258
vn -0.000000 -0.548336 0.836258
vn -0.000000 -0.548336 0.836258
vn 0.000000 1.000000 0.000000
vn 0.000000 1.000000 0.000000
vn 0.000000 1.000000 0.000000
vn 0.000000 1.000000 0.000000
vn 0.000000 1.000000 0.000000
vn 0.000000 1.000000 0.000000
vn 0.223249 -0.974762 0.000000
vn 0.223249 -0.974762 0.000000
vn 0.223249 -0.974762 0.000000
vn 0.223249 -0.974762 0.000000
vn 0.223249 -0.974762 0.000000
vn 0.223249 -0.974762 0.000000
vn -1.000000 0.000000 0.000000
vn -1.000000 0.000000 0.000000
vn -1.000000 0.000000 0.000000
vn -0.223248 -0.974762 0.000008
vn -0.223248 -0.974762 0.000008
vn -0.223248 -0.974762 0.000008
vn -0.223249 -0.974762 -0.000000
vn -0.223249 -0.974761 -0.000000
vn -0.223249 -0.974762 -0.000000
vn 0.000000 0.000000 1.000000
vn 0.000000 0.000000 1.000000
vn 0.000000 0.000000 1.000000
vn -0.000001 -0.000000 1.000000
vn -0.000001 -0.000000 1.000000
vn -0.000001 -0.000000 1.000000
vn 0.000000 0.000001 1.000000
vn 0.000000 0.000001 1.000000
vn 0.000000 0.000001 1.000000
vn -0.000000 0.000000 1.000000
vn -0.000000 0.000000 1.000000
vn -0.000000 0.000000 1.000000
vn 0.000000 -1.000000 -0.000000
vn 0.000000 -1.000000 -0.000000
vn 0.000000 -1.000000 -0.000000
vn 0.000000 -1.000000 -0.000000
vn 0.000000 -1.000000 -0.000000
vn 0.000000 -1.000000 -0.000000
vn -0.000000 0.000000 1.000000
vn -0.000000 0.000000 1.000000
vn -0.000000 0.000000 1.000000
vn -0.000000 0.000000 1.000000
vn -0.000000 0.000000 1.000000
vn -0.000000 0.000000 1.000000
vn 0.000000 1.000000 0.000000
vn 0.000000 1.000000 0.000000
vn 0.000000 1.000000 0.000000
vn 0.000000 1.000000 0.000000
vn 0.000000 1.000000 0.000000
vn 0.000000 1.000000 0.000000
vn 0.000000 -1.000000 -0.000000
vn 0.000000 -1.000000 -0.000000
vn 0.000000 -1.000000 -0.000000
vn 0.000000 -1.000000 -0.000000
vn 0.000000 -1.000000 -0.000000
vn 0.000000 -1.000000 -0.000000
vn -0.000000 0.000000 1.000000
vn -0.000000 0.000000 1.000000
vn -0.000000 0.000000 1.000000
vn -0.000000 0.000000 1.000000
vn -0.000000 0.000000 1.000000
vn -0.000000 0.000000 1.000000
vn 0.000000 1.000000 0.000000
vn 0.000000 1.000000 0.000000
vn 0.000000 1.000000 0.000000
vn 0.000000 1.000000 0.000000
vn 0.000000 1.000000 0.000000
vn 0.000000 1.000000 0.000000
vn 0.000000 -1.000000 -0.000000
vn 0.000000 -1.000000 -0.000000
vn 0.000000 -1.000000 -0.000000
vn 0.000000 -1.000000 -0.000000
vn 0.000000 -1.000000 -0.000000
vn 0.000000 -1.000000 -0.000000
vn -0.000000 0.000000 1.000000
vn -0.000000 0.000000 1.000000
vn -0.000000 0.000000 1.000000
vn -0.000000 0.000000 1.000000
vn -0.000000 0.000000 1.000000
vn -0.000000 0.000000 1.000000
vn 0.000000 1.000000 0.000000
vn 0.000000 1.000000 0.000000
vn 0.000000 1.000000 0.000000
vn 0.000000 1.000000 0.000000
vn 0.000000 1.000000 0.000000
vn 0.000000 1.000000 0.000000
vn 0.000000 -1.000000 -0.000000
vn 0.000000 -1.000000 -0.000000
vn 0.000000 -1.000000 -0.000000
vn 0.000000 -1.000000 -0.000000
vn 0.000000 -1.000000 -0.000000
vn 0.000000 -1.000000 -0.000000
vn -0.000000 0.000000 1.000000
vn -0.000000 0.000000 1.000000
vn -0.000000 0.000000 1.000000
vn -0.000000 0.000000 1.000000
vn -0.000000 0.000000 1.000000
vn -0.000000 0.000000 1.000000
vn -0.000000 1.000000 -0.000000
vn -0.000000 1.000000 -0.000000
vn -0.000000 1.000000 -0.000000
vn -0.000000 1.000000 -0.000000
vn -0.000000 1.000000 0.000000
vn -0.000000 1.000000 -0.000000
vn 0.000000 -1.000000 0.000000
vn 0.000000 -1.000000 0.000000
vn 0.000000 -1.000000 0.000000
vn 0.000000 -1.000000 0.000000
vn 0.000000 -1.000000 0.000000
vn 0.000000 -1.000000 0.000000
vn -0.000000 0.000000 1.000000
vn -0.000000 0.000000 1.000000
vn -0.000000 0.000000 1.000000
vn -0.000000 0.000000 1.000000
vn -0.000000 0.000000 1.000000
vn -0.000000 0.000000 1.000000
vn -0.000000 1.000000 -0.000000
vn -0.000000 1.000000 -0.000000
vn -0.000000 1.000000 -0.000000
vn -0.000000 1.000000 -0.000000
vn -0.000000 1.000000 0.000000
vn -0.000000 1.000000 -0.000000
vn 0.000000 0.000000 1.000000
vn 0.000000 0.000000 1.000000
vn 0.000000 0.000000 1.000000
vn 0.000000 0.000000 1.000000
vn 0.000000 0.000000 1.000000
vn 0.000000 0.000000 1.000000
vn 0.000000 0.000001 1.000000
vn 0.000000 0.000001 1.000000
vn 0.000000 0.000001 1.000000
vn 0.000000 0.000000 -1.000000
vn 0.000000 0.000000 -1.000000
vn 0.000000 0.000000 -1.000000
vn 0.000000 0.000000 -1.000000
vn 0.000000 0.000000 -1.000000
vn 0.000000 0.000000 -1.000000
vn 0.000000 0.000000 -1.000000
vn 0.000000 0.000000 -1.000000
vn 0.000000 0.000000 -1.000000
vn -0.000000 -0.548336 0.836258
vn -0.000000 -0.548336 0.836258
vn -0.000000 -0.548336 0.836258
vn -0.000000 -0.548336 0.836258
vn -0.000000 -0.548336 0.836258
vn -0.000000 -0.548336 0.836258
vn -0.000000 -0.548336 0.836258
vn -0.000000 -0.548336 0.836258
vn -0.000000 -0.548336 0.836258
s off
g Box001
f 1/80/1 2/81/2 6/3/3
f 6/3/4 5/83/5 1/80/6
f 2/81/7 4/84/8 8/6/9
f 8/6/10 6/3/11 2/81/12
f 4/102/13 3/86/14 7/87/15
f 7/87/16 8/103/17 4/102/18
f 3/7/19 1/1/20 10/9/21
f 10/9/22 9/10/23 3/7/24
f 5/83/25 38/90/26 39/91/27
f 5/83/28 39/91/29 11/92/30
f 1/80/31 5/83/32 11/92/33
f 1/80/34 11/92/35 10/88/36
f 9/10/37 10/9/38 13/14/39
f 13/14/40 12/15/41 9/10/42
f 33/17/43 35/18/44 34/19/45
f 34/19/46 32/16/47 33/17/48
f 16/21/49 17/22/50 18/23/51
f 18/23/52 19/20/53 16/21/54
f 12/94/55 13/93/56 17/97/57
f 17/97/58 16/96/59 12/94/60
f 10/88/61 11/92/62 14/24/63
f 13/93/64 10/88/65 14/24/66
f 13/93/67 14/24/68 17/97/69
f 14/98/70 34/109/71 18/23/72
f 15/99/73 16/96/74 19/95/75
f 14/24/76 18/115/77 17/97/78
f 37/100/79 9/89/80 12/94/81
f 15/99/82 37/100/83 12/94/84
f 15/99/85 12/94/86 16/96/87
f 1/1/88 3/7/89 22/27/90
f 22/27/91 20/28/92 1/1/93
f 3/7/94 4/5/95 23/29/96
f 23/29/97 22/27/98 3/7/99
f 4/5/100 2/2/101 21/30/102
f 21/30/103 23/29/104 4/5/105
f 2/2/106 1/112/107 20/113/108
f 20/113/109 21/30/110 2/2/111
f 20/28/112 22/27/113 26/31/114
f 26/31/115 24/32/116 20/28/117
f 22/27/118 23/29/119 27/33/120
f 27/33/121 26/31/122 22/27/123
f 23/29/124 21/30/125 25/34/126
f 25/34/127 27/33/128 23/29/129
f 21/30/130 20/113/131 24/114/132
f 24/114/133 25/34/134 21/30/135
f 5/4/136 6/82/137 29/35/138
f 29/35/139 28/36/140 5/4/141
f 6/82/142 8/85/143 31/37/144
f 31/37/145 29/35/146 6/82/147
f 8/85/148 7/8/149 30/38/150
f 30/38/151 31/37/152 8/85/153
f 7/8/154 36/39/155 30/38/156
f 30/38/157 28/107/158 29/116/159
f 29/116/160 31/117/161 30/38/162
f 37/26/163 15/110/164 35/18/165
f 35/18/166 33/17/167 37/26/168
f 14/111/169 11/13/170 39/12/171
f 14/111/172 39/12/173 32/16/174
f 34/19/175 14/111/176 32/16/177
f 7/87/178 3/86/179 9/89/180
f 7/87/181 9/89/182 37/100/183
f 36/101/184 7/87/185 37/100/186
f 38/104/187 32/16/188 39/12/189
f 40/40/190 41/41/191 45/42/192
f 45/42/193 44/43/194 40/40/195
f 41/41/196 43/44/197 47/45/198
f 47/45/199 45/42/200 41/41/201
f 43/44/202 42/46/203 46/47/204
f 46/47/205 47/45/206 43/44/207
f 48/48/208 49/49/209 53/50/210
f 53/50/211 52/51/212 48/48/213
f 49/49/214 51/52/215 55/53/216
f 55/53/217 53/50/218 49/49/219
f 51/52/220 50/54/221 54/55/222
f 54/55/223 55/53/224 51/52/225
f 56/56/226 57/57/227 61/58/228
f 61/58/229 60/59/230 56/56/231
f 57/57/232 59/60/233 63/61/234
f 63/61/235 61/58/236 57/57/237
f 59/60/238 58/62/239 62/63/240
f 62/63/241 63/61/242 59/60/243
f 64/64/244 65/65/245 69/66/246
f 69/66/247 68/67/248 64/64/249
f 65/65/250 67/68/251 71/69/252
f 71/69/253 69/66/254 65/65/255
f 67/68/256 66/70/257 70/71/258
f 70/71/259 71/69/260 67/68/261
f 72/72/262 73/73/263 77/74/264
f 77/74/265 76/75/266 72/72/267
f 73/73/268 75/76/269 79/77/270
f 79/77/271 77/74/272 73/73/273
f 75/76/274 74/78/275 78/79/276
f 78/79/277 79/77/278 75/76/279
f 38/104/280 36/105/281 33/17/282
f 33/17/283 32/16/284 38/104/285
f 36/105/286 37/26/287 33/17/288
f 34/109/289 35/108/290 19/20/291
f 19/20/292 18/23/293 34/109/294
f 35/108/295 15/25/296 19/20/297
f 36/39/298 38/11/299 28/107/300
f 28/107/301 30/38/302 36/39/303
f 38/11/304 5/106/305 28/107/306
